<?xml version="1.0" standalone="no"?>
<!DOCTYPE svg PUBLIC "-//W3C//DTD SVG 20010904//EN"
 "http://www.w3.org/TR/2001/REC-SVG-20010904/DTD/svg10.dtd">
<svg version="1.0" xmlns="http://www.w3.org/2000/svg"
 width="256.000000pt" height="231.000000pt" viewBox="0 0 256.000000 231.000000"
 preserveAspectRatio="xMidYMid meet">

<g transform="translate(0.000000,231.000000) scale(0.100000,-0.100000)"
fill="#000000" stroke="none">
<path d="M0 1155 l0 -1155 1280 0 1280 0 0 1155 0 1155 -1280 0 -1280 0 0
-1155z m1529 949 c356 -90 635 -375 727 -744 29 -114 26 -355 -5 -470 -190
-712 -1030 -991 -1602 -532 -157 125 -276 306 -335 507 -35 122 -44 319 -20
448 60 316 257 577 541 717 221 109 457 134 694 74z"/>
<path d="M1165 2074 c-456 -73 -784 -411 -824 -851 -36 -404 172 -767 542
-944 136 -64 218 -82 392 -83 173 -1 260 17 402 84 106 50 162 88 252 174 126
121 205 251 258 422 25 82 27 102 27 259 0 157 -2 177 -28 260 -101 332 -362
578 -698 660 -64 16 -268 27 -323 19z m343 -60 c543 -136 834 -747 599 -1257
-122 -263 -360 -454 -642 -514 -91 -19 -280 -20 -370 0 -335 72 -589 309 -692
644 -24 80 -27 103 -27 248 0 146 3 168 28 250 52 171 155 332 282 440 151
128 304 191 529 219 60 7 202 -7 293 -30z"/>
<path d="M840 1549 l0 -141 62 -64 c33 -35 67 -64 75 -64 8 0 13 13 13 37 l0
38 145 -145 145 -145 145 145 145 145 0 -38 c0 -20 3 -37 8 -37 16 0 121 107
131 133 16 42 14 277 -1 277 -7 0 -104 -92 -214 -205 -111 -113 -208 -205
-215 -205 -8 0 -106 92 -219 205 -113 113 -208 205 -212 205 -5 0 -8 -63 -8
-141z"/>
<path d="M630 1555 c1 -6 -1 -212 -3 -459 -3 -373 -1 -451 11 -462 19 -19 310
-20 336 -1 16 11 17 29 14 170 l-3 156 -65 66 c-35 36 -68 65 -72 65 -4 0 -9
-71 -10 -157 l-3 -158 -30 0 -30 0 -3 218 c-1 119 1 217 5 217 4 0 119 -111
255 -247 l248 -248 250 250 c172 172 251 244 255 234 3 -8 4 -107 3 -219 l-3
-205 -30 0 -30 0 -3 158 c-1 86 -6 157 -10 157 -4 0 -38 -30 -75 -68 l-67 -68
0 -161 c0 -158 0 -161 23 -167 29 -8 301 -8 321 0 14 5 16 56 16 472 l0 467
-325 -325 -325 -325 -325 325 c-179 179 -325 320 -325 315z"/>
</g>
</svg>
